<?xml version="1.0" encoding="UTF-8"?>
<svg width="617.43" height="681.28" fill-rule="evenodd" viewBox="0 0 8500 11000" xmlns="http://www.w3.org/2000/svg">
 <defs>
  <filter id="f">
   <feGaussianBlur stdDeviation="177.3381"/>
  </filter>
  <filter id="a">
   <feGaussianBlur stdDeviation="26.24133"/>
  </filter>
  <filter id="h">
   <feGaussianBlur stdDeviation="1.11721"/>
  </filter>
  <filter id="g" x="-.04182" y="-.18242" width="1.0836" height="1.3648">
   <feGaussianBlur stdDeviation="45.09831"/>
  </filter>
  <linearGradient id="e" x1="3166.1" x2="5754.2" y1="7870.7" y2="7904.3" gradientUnits="userSpaceOnUse">
   <stop stop-color="#3e63b8" stop-opacity=".47059" offset="0"/>
   <stop stop-color="#ccdafa" stop-opacity=".69388" offset=".25926"/>
   <stop stop-color="#10307a" stop-opacity=".47059" offset="1"/>
  </linearGradient>
  <radialGradient id="d" cx="3614.3" cy="4013.2" r="1295.9" fx="3044.4" fy="4036" gradientTransform="matrix(.95129 .4367 -.40685 .88627 1879.7 -1190.3)" gradientUnits="userSpaceOnUse">
   <stop stop-color="#f7ffff" offset="0"/>
   <stop stop-color="#b7f5f8" stop-opacity="0" offset="1"/>
  </radialGradient>
  <radialGradient id="c" cx="4399.1" cy="8487.6" r="1294.1" gradientTransform="matrix(-2.1462 -.0054943 .0016816 -.65689 13967 13014)" gradientUnits="userSpaceOnUse">
   <stop offset="0"/>
   <stop stop-color="#5f5a5a" stop-opacity="0" offset="1"/>
  </radialGradient>
  <radialGradient id="b" cx="2392.9" cy="5986" r="328.02" fx="2487.3" fy="5904.4" gradientTransform="matrix(1.1744 -.023256 .020083 1.0141 -105.7 488.21)" gradientUnits="userSpaceOnUse">
   <stop stop-color="#fbbb6c" offset="0"/>
   <stop stop-color="#53391b" offset="1"/>
  </radialGradient>
 </defs>
 <g transform="matrix(1.6239 0 0 1.6239 -6061.6 -2505.8)" fill-rule="evenodd">
  <path d="m6349.8 1828.9c-1551.4 0-2810.3 1258.9-2810.3 2810.3 0 1059.5 587.11 1982.8 1453.6 2461.8l32.129 536.46c64.474 194.94 703.62 395.99 1371.3 393.34 624.04-2.4821 1216.3-195.32 1292.5-393.34l31.642-535.97c-88.34 44.848-175.2 85.16-260.93 120.73 1e3 -430.62 1700.4-1425.6 1700.4-2583v-35.05c-19.356-1538.8-1271.3-2775.3-2810.3-2775.3zm-631.87 5549.6c20.089 4.6222 40.114 8.9551 60.364 13.144-20.281-4.1656-40.516-8.5956-60.364-13.144zm65.718 14.117c21.894 4.4842 43.643 8.686 65.719 12.657-22.211-3.9513-44.01-8.2434-65.719-12.657z" filter="url(#f)" opacity=".8"/>
  <g transform="translate(1807.1 -527.63)">
   <path d="m5754.2 7385.7c-447.11 226.99-855.49 325.52-1262.5 329.72-566.3 5.8428-993.67-150.14-1325.7-330.31l30.26 509.09c61.185 184.99 655.35 375.95 1289 373.43 592.21-2.356 1166.7-185.52 1239-373.43l29.906-508.5z" fill="url(#e)" opacity=".8"/>
   <path transform="matrix(2.0699 0 0 2.0699 -3592.6 -3116.2)" d="m5175.6 3944.7a1288.5 1288.5 0 1 1 -0.1019 -16.206" fill="url(#d)" fill-rule="evenodd" opacity=".8"/>
   <path transform="matrix(1 0 0 1.079 0 -615.08)" d="m5754.2 7332.4c-447.11 226.99-855.49 325.52-1262.5 329.72-566.3 5.8428-993.67-150.14-1325.7-330.31l0.6939 297.96c16.785 220.52 691.29 490.93 1324.9 488.41 592.21-2.356 1234.3-275.21 1262.2-507.53l0.3395-278.25z" fill="url(#c)" filter="url(#g)" opacity=".8"/>
   <g transform="translate(504.59)" fill-rule="evenodd">
    <g transform="matrix(1.3541 .07754 -.07754 1.3541 -1381.7 -2964.3)">
     <g transform="matrix(1.237 0 0 1.237 -533.13 -187.96)">
      <path transform="matrix(.64266 -.0015707 -.0017076 .66896 2855.9 996.33)" d="m3095.6 6537.4a328.02 328.02 0 1 1 -0.026 -4.1257" filter="url(#a)"/>
      <path transform="matrix(.65389 0 0 .65389 2790.6 1043.8)" d="m3095.6 6537.4a328.02 328.02 0 1 1 -0.026 -4.1257" fill="url(#b)"/>
     </g>
     <path d="m5150 6225.8 8.2129-22.046c53.669 2.5609 103.54 23.819 151.47 54.614-1.8488 5.5972-4.921 10.512-9.2168 14.745-6.9888 7.0203-16.249 13.077-27.78 18.17s-27.315 10.099-47.35 15.017c-31.109 7.671-52.852 14.792-65.229 21.363s-20.18 14.189-23.408 22.855c-3.3863 9.0901-2.2566 18.194 3.3888 27.313s14.877 15.989 27.695 20.61c13.547 4.8845 25.619 5.479 36.216 1.7834s18.131-11.387 22.603-23.073l28.016 12.848c-8.5312 16.872-20.975 27.587-37.33 32.145s-35.423 2.9111-57.202-4.9417c-21.988-7.9283-37.539-19.173-46.654-33.734s-10.934-29.191-5.459-43.888c2.7854-7.4761 7.3987-14.148 13.84-20.017s15.501-11.227 27.177-16.075 30.218-10.594 55.624-17.237c21.186-5.4669 34.943-9.3963 41.272-11.788s11.831-5.1057 16.508-8.1413c-28.66-30.827-73.231-30.349-112.39-40.524z" stroke="#000" stroke-width="16.218"/>
    </g>
    <g transform="matrix(1.3541 .07754 -.07754 1.3541 -1359.6 -2914.6)">
     <g transform="matrix(1.237 0 0 1.237 -1034.9 -425.28)">
      <path transform="matrix(.62937 .00070087 .00070087 .64157 2871.5 1177.9)" d="m3095.6 6537.4a328.02 328.02 0 1 1 -0.026 -4.1257" filter="url(#a)"/>
      <path transform="matrix(.65389 0 0 .65389 2790.6 1043.8)" d="m3095.6 6537.4a328.02 328.02 0 1 1 -0.026 -4.1257" fill="url(#b)"/>
     </g>
     <text transform="matrix(.83238,-.67525,.8342,.52465,0,0)" x="-2734.9961" y="8273.2402" font-family="Arial" font-size="284.6" stroke="#000" stroke-width="9.287">
      <tspan x="-2734.9961" y="8273.2402" stroke-width="9.287">4</tspan>
     </text>
     <path d="m4808.1 6038-21.753 15.104c-41.711-33.103-84.115-68.526-127.89-87.192-0.8484 4.2284-3.3883 8.813-7.6194 13.754s-8.7092 8.9215-13.435 11.942l-19.28-12.986c7.3664-6.1891 12.038-12.79 14.014-19.804s1.4187-13.296-1.6737-18.85l11.346-6.2471c68.203 26.933 118.81 62.839 166.29 104.28z" stroke="#000" stroke-width="5.8217"/>
    </g>
    <g transform="matrix(1.4197 .081299 -.07754 1.3541 -1510.5 -2973)">
     <g transform="matrix(1.0661 0 0 1.0661 -1028.4 556.37)">
      <path transform="matrix(.65389 0 0 .65389 2816.1 1094.8)" d="m3095.6 6537.4a328.02 328.02 0 1 1 -0.026 -4.1257" filter="url(#a)"/>
      <path transform="matrix(.65389 0 0 .65389 2790.6 1043.8)" d="m3095.6 6537.4a328.02 328.02 0 1 1 -0.026 -4.1257" fill="url(#b)"/>
     </g>
     <path d="m3715.5 6292.5-13.241 15.164c-12.457-29.971-17.346-59.942-13.035-89.912 3.2987-3.922 6.5818-6.9247 9.8495-9.0081 5.3831-3.4962 10.889-5.5286 16.518-6.0969s12.349 0.2294 20.159 2.3927c12.144 3.331 21.514 4.2492 28.109 2.7545s12.495-5.2222 17.7-11.183c5.4594-6.2526 9.7212-13.892 12.786-22.92s4.0446-17.345 2.9416-24.954c-1.1659-8.0417-4.0886-12.196-8.7678-12.463s-10.544 3.6007-17.594 11.603l-1.0345-18.831c10.732-10.921 19.422-15.716 26.07-14.386s10.909 8.4598 12.784 21.388c1.8921 13.052 0.4049 26.801-4.4616 41.247s-11.714 26.723-20.541 36.832c-4.4902 5.1424-9.0652 9.0836-13.725 11.824s-9.7625 4.2741-15.307 4.6018c-5.5452 0.3277-13.372-0.7171-23.479-3.1344-8.3921-2.074-14.032-3.1167-16.919-3.128s-5.7154 0.4867-8.4846 1.4943c-2.0504 25.049 3.4784 46.059 9.6722 66.715z" stroke="#000" stroke-width="12.454"/>
     <text transform="matrix(.15261,.9877,-.86829,.93303,0,0)" x="8977.8213" y="-2731.0867" font-family="Arial" font-size="182.88" stroke="#000" stroke-width="12.454">
      <tspan x="8977.8213" y="-2731.0867" stroke-width="12.454">4</tspan>
     </text>
    </g>
    <g transform="matrix(1.3796 .079002 -.079002 1.3796 -1358.9 -3098.8)">
     <g transform="matrix(1.1736 0 0 1.1736 -1840.1 298.1)">
      <path transform="matrix(.71341 -.0015728 -.0016922 .73812 2647.9 520.86)" d="m3095.6 6537.4a328.02 328.02 0 1 1 -0.026 -4.1257" filter="url(#a)"/>
      <path transform="matrix(.65389 0 0 .65389 2790.6 1043.8)" d="m3095.6 6537.4a328.02 328.02 0 1 1 -0.026 -4.1257" fill="url(#b)"/>
     </g>
     <path transform="matrix(.75299,.82063,-.66391,.60449,0,0)" d="m6465.2 2134.8h-20.148c-7.0026-45.278-4.2423-87.094 0-128.38-12.017 11.499-16.73 10.24-30.742 16.807v-19.476c19.236-8.1216 24.952-14.937 37.906-33.709h12.984c-6.0843 57.806-10.247 114.7 0 164.76zm101.69 2.2532h-20.148c3.4672-40.193 7.7394-79.783 0-128.38-12.017 11.499-15.328 10.165-29.34 16.732v-19.476c19.236-8.1216 23.55-14.862 36.504-33.634h12.984c2.0163 57.208 5.4603 116.03 0 164.76z" stroke="#000" stroke-width="29.522"/>
    </g>
    <g transform="matrix(1.3541 .07754 -.07754 1.3541 -1222.9 -2954.6)">
     <g transform="matrix(1.2024 0 0 1.2024 -732.06 121.63)">
      <path transform="matrix(.74285 0 0 .70991 2534.1 697.09)" d="m3095.6 6537.4a328.02 328.02 0 1 1 -0.026 -4.1257" filter="url(#a)"/>
      <path transform="matrix(.65389 0 0 .65389 2790.6 1043.8)" d="m3095.6 6537.4a328.02 328.02 0 1 1 -0.026 -4.1257" fill="url(#b)"/>
     </g>
     <text transform="matrix(1.0736 -.47476 0 .93146 0 0)" x="4451.561" y="9459.3477" font-family="Arial" font-size="274.82" stroke="#000" stroke-width="12.752">
      <tspan x="4451.561" y="9459.3477" stroke-width="12.752">9</tspan>
     </text>
    </g>
    <g transform="matrix(1.675 .09592 -.09592 1.675 -2814.6 -5216.4)">
     <path transform="matrix(.7324 0 0 .65389 3293 2426.4)" d="m3095.6 6537.4a328.02 328.02 0 1 1 -0.026 -4.1257" filter="url(#a)"/>
     <g transform="matrix(.73993 0 0 .73993 5702.3 -53.134)">
      <path transform="matrix(.88372 0 0 .88372 -2962.2 3308)" d="m3095.6 6537.4a328.02 328.02 0 1 1 -0.026 -4.1257" fill="url(#b)"/>
      <path transform="matrix(1.0367 -.49922 .18049 .87767 0 0)" d="m-1991.8 9400.6 4.671-55.458c-34.263 6.4379-67.099 4.683-98.827-3.4416v-25.556c28.823-51.221 66.664-102.06 110.54-146.01l29.278-3.3069-13.434 149.31 34.576-8.8168-1.08 24.942-33.496 9.4311-4.1283 57.624-28.101 1.2757zm4.3504-84.456 11.91-102.61c-31.099 28.616-63.44 71.434-82.81 108.33 21.025 1.3573 44.494-4.3409 70.9-5.717z" stroke="#000" stroke-width="13.705"/>
     </g>
    </g>
    <g transform="matrix(1.7611 .10085 -.10085 1.7611 -2697.8 -6010.4)">
     <path transform="matrix(.66634 0 0 .69274 1556 2465.5)" d="m3095.6 6537.4a328.02 328.02 0 1 1 -0.026 -4.1257" filter="url(#a)"/>
     <g transform="matrix(.67399 0 0 .67399 4204.2 766.45)">
      <path transform="translate(-3982 2631.8)" d="m3095.6 6537.4a328.02 328.02 0 1 1 -0.026 -4.1257" fill="url(#b)"/>
      <path d="m-1227 9330-35.08-9.8791c64.253-42.022 119.05-111.6 156.45-171.1l12.851 20.844c-0.8524 21.237 2.6144 44.2 10.401 68.889s19.212 46.172 34.277 64.445c10.511 13.008 26.408 25.843 43.711 35.848-9.9499 12.165-18.408 21.355-29.264 31.849-14.529-6.9196-28.845-20.983-43.511-37.536s-25.836-35.914-33.508-58.083-11.528-43.837-11.567-65.007c-21.959 34.965-53.401 72.262-104.76 119.73z" stroke="#000" stroke-width="14.192"/>
     </g>
    </g>
    <g transform="matrix(1.3541 .07754 -.07754 1.3541 -1312.6 -2899.1)">
     <g transform="matrix(1.2151 0 0 1.2151 -1609.9 135.43)">
      <path transform="matrix(.68788 0 0 .75106 2692.8 418.43)" d="m3095.6 6537.4a328.02 328.02 0 1 1 -0.026 -4.1257" filter="url(#a)"/>
      <path transform="matrix(.65389 0 0 .65389 2790.6 1043.8)" d="m3095.6 6537.4a328.02 328.02 0 1 1 -0.026 -4.1257" fill="url(#b)"/>
     </g>
     <path transform="matrix(.87871,-.84361,.4426,.7131,0,0)" d="m-26.836 9404.9h-26.001v-165.69c-15.587 14.648-18.089 14.959-36.299 23.073v-25.135c14.541-6.8373 11.55-6.8457 22.432-16.572s18.586-19.164 23.112-28.313h16.756v212.63z"/>
    </g>
    <g transform="matrix(1.3541 .07754 -.07754 1.3541 -1425.6 -2855.7)">
     <g transform="matrix(1.3629 0 0 1.3629 -2502.2 -272.16)">
      <path transform="matrix(.71075 0 0 .76977 2639.2 295.94)" d="m3095.6 6537.4a328.02 328.02 0 1 1 -0.026 -4.1257" filter="url(#a)"/>
      <path transform="matrix(.65389 0 0 .65389 2790.6 1043.8)" d="m3095.6 6537.4a328.02 328.02 0 1 1 -0.026 -4.1257" fill="url(#b)"/>
     </g>
     <path transform="matrix(-.93741,-.29727,.52783,-.89938,0,0)" d="m-6915.1-5227.2v21.409c-43.754 8.3016-83.322 7.4144-119.92 0-0.165-5.3626 0.7013-10.519 2.5988-15.469 3.0526-8.1677 7.9408-16.212 14.665-24.132s16.438-17.078 29.144-27.473c19.718-16.17 33.042-28.979 39.972-38.425s10.395-18.377 10.395-26.792c-1e-4 -8.8275-3.1558-16.273-9.4671-22.337s-14.541-9.0956-24.689-9.0958c-10.725 2e-4 -19.305 3.2177-25.74 9.6527-6.4351 6.4353-9.6939 15.345-9.7764 26.73l-22.894-2.3513c1.5675-17.078 7.4664-30.092 17.697-39.044s23.967-13.427 41.21-13.427c17.408 2e-4 31.186 4.8265 41.333 14.479s15.222 21.616 15.222 35.888c-1e-4 7.2603-1.4852 14.397-4.4551 21.409s-7.8996 14.397-14.788 22.152-18.336 18.398-34.341 31.928c-13.365 11.22-21.946 18.831-25.74 22.832s-6.9302 8.0233-9.4052 12.066c26.572 10.259 58.129 3.9542 88.978 0z" stroke="#000" stroke-width="12.752"/>
     <text transform="matrix(-.80497,-.7206,.67611,-.63704,0,0)" x="-7218.8696" y="-2664.7207" font-family="Arial" font-size="280.31" stroke="#000" stroke-width="12.752">
      <tspan x="-7218.8696" y="-2664.7207" stroke-width="12.752">3</tspan>
     </text>
    </g>
    <g transform="matrix(1.7677 .10123 -.098573 1.7214 -2557.5 -4874.9)">
     <path transform="matrix(.79067 0 0 .6755 2488.2 2093.3)" d="m3095.6 6537.4a328.02 328.02 0 1 1 -0.026 -4.1257" filter="url(#a)"/>
     <g transform="translate(6.3714 -19.114)">
      <g transform="matrix(.73993 0 0 .73993 5065.2 -218.79)">
       <path transform="matrix(.88372 0 0 .88372 -2962.2 3308)" d="m3095.6 6537.4a328.02 328.02 0 1 1 -0.026 -4.1257" fill="url(#b)"/>
      </g>
      <text transform="matrix(.7425 -1.0381 .63685 .45641 0 0)" x="-2079.502" y="9893.6992" font-family="Arial" font-size="231.37" stroke="#000" stroke-width="10.41">
       <tspan x="-2079.502" y="9893.6992" stroke-width="10.41">8</tspan>
      </text>
     </g>
    </g>
    <g transform="matrix(1.3541 .07754 -.07754 1.3541 -1340.4 -2939)">
     <g transform="matrix(1.1736 0 0 1.1736 -1132.8 -49.141)">
      <path transform="matrix(.69527 0 0 .61665 2693.4 1326)" d="m3095.6 6537.4a328.02 328.02 0 1 1 -0.026 -4.1257" filter="url(#a)"/>
      <path transform="matrix(.65389 0 0 .65389 2790.6 1043.8)" d="m3095.6 6537.4a328.02 328.02 0 1 1 -0.026 -4.1257" fill="url(#b)"/>
     </g>
     <path transform="matrix(1.0447 .10641 -.14082 .94283 0 0)" d="m4948.5 6047.6v-18.89c34.912 2.7616 68.693-2.8684 102.83-5.8835v15.286c-10.191 10.846-20.291 25.259-30.3 43.238s-17.743 36.469-23.202 55.468c-3.9308 13.394-6.4421 28.061-7.5339 44.003h-20.2c0.2183-12.593 2.6932-27.807 7.4247-45.641s11.519-35.031 20.364-51.591 18.253-30.518 28.225-41.874c-25.487 4.788-51.273 7.3589-77.604 5.8835z" stroke="#000" stroke-width="16.218"/>
     <path transform="matrix(1.0343 .16336 -.1394 .94485 0 0)" d="m4906 5854.4v18.625c-35.082 1.8564-69.888 3.3022-100.22-1.9009-0.1435-4.6652 0.6101-9.1511 2.2609-13.458 2.6556-7.1055 6.9081-14.103 12.758-20.994s14.301-14.857 25.354-23.9c17.154-14.068 28.745-25.21 34.774-33.428s9.0434-15.987 9.0435-23.308c-1e-4 -7.6796-2.7454-14.157-8.236-19.433s-12.65-7.9129-21.478-7.913c-20.244 1.1919-27.671 5.8467-31.684 25.828l-16.882-3.7624c9.2863-25.198 21.858-35.039 48.996-38.106 15.144 2e-4 27.13 4.1989 35.958 12.596s13.242 18.805 13.242 31.221c-1e-4 6.3161-1.292 12.524-3.8758 18.625s-6.8724 12.524-12.865 19.271-15.952 16.006-29.876 27.776c-11.627 9.7612-19.092 16.382-22.393 19.863s-6.029 6.98-8.1822 10.497c21.266 5.3463 47.327 3.5648 73.308 1.9009z" stroke="#000" stroke-width="16.218"/>
    </g>
    <g transform="matrix(1.3541 .07754 -.07754 1.3541 -1373 -2902.6)">
     <g transform="matrix(1.237 0 0 1.237 -1227.8 41.045)">
      <path transform="matrix(.72618 0 0 .73161 2595.9 546.64)" d="m3095.6 6537.4a328.02 328.02 0 1 1 -0.026 -4.1257" filter="url(#a)"/>
      <path transform="matrix(.65389 0 0 .65389 2790.6 1043.8)" d="m3095.6 6537.4a328.02 328.02 0 1 1 -0.026 -4.1257" fill="url(#b)"/>
     </g>
     <text transform="matrix(.84214 -.63542 .49342 .81515 20.274 3.379)" x="394.55109" y="8582.9844" filter="url(#h)" font-family="Arial" font-size="270.88" stroke="#000" stroke-width="12.752">
      <tspan x="394.55109" y="8582.9844" stroke-width="12.752">3</tspan>
     </text>
     <text transform="matrix(.94312,-.48834,.36242,.87265,0,0)" x="1393.1356" y="8603.1982" font-family="Arial" font-size="274.08" stroke="#000" stroke-width="9.287">
      <tspan x="1393.1356" y="8603.1982" stroke-width="9.287">3</tspan>
     </text>
    </g>
    <g transform="matrix(1.3541 .07754 -.07754 1.3541 -1347.3 -2858.8)">
     <g transform="matrix(1.3356 0 0 1.3356 -1416.3 -135.38)">
      <path transform="matrix(.76316 0 0 .74002 2471.9 497.61)" d="m3095.6 6537.4a328.02 328.02 0 1 1 -0.026 -4.1257" filter="url(#a)"/>
      <path transform="matrix(.65389 0 0 .65389 2790.6 1043.8)" d="m3095.6 6537.4a328.02 328.02 0 1 1 -0.026 -4.1257" fill="url(#b)"/>
     </g>
     <g transform="matrix(1 0 0 1.0897 0 -601.04)" stroke="#000" stroke-width="8.8967">
      <path d="m4682.8 6743.1 26.789 36.19c34.705-10.286 69.411-16.956 104.12-24.692l13.652 17.498c-5.7907 38.83-16.365 77.661-31.166 116.49l-20.16 6.1849-75.223-86.277-27.154 8.3307-13.652-17.498 21.522-9.3644-27.915-35.156 29.19-11.708zm42.694 57.823 54.691 61.83c11.525-27.736 18.753-57.54 22.899-83.21-24.858 6.2042-49.792 12.478-77.59 21.379z"/>
      <path d="m4711.9 6891.6 13.87 17.154c-45.493 22.103-72.494 54.205-113.44 88.865l-11.225-13.882c4.5218-17.37 6.3131-37.912 5.3737-61.625s-5.0398-46.212-12.302-67.494c-5.0189-15.064-12.712-30.238-23.08-45.52l21.37-20.074c8.9794 11.597 20.497 32.408 27.796 52.095s11.61 40.314 12.934 61.879 4.5512 32.914 0.6711 50.586c24.614-24.838 43.361-43.642 78.032-61.984z"/>
     </g>
    </g>
    <g transform="matrix(1.3541 .07754 -.07754 1.3541 -3584 -3517.1)">
     <path transform="matrix(.91527 0 0 .95477 3421.4 1230.5)" d="m3095.6 6537.4a328.02 328.02 0 1 1 -0.026 -4.1257" filter="url(#a)"/>
     <path transform="matrix(.86034 0 0 .91357 3505.9 1400.8)" d="m3095.6 6537.4a328.02 328.02 0 1 1 -0.026 -4.1257" filter="url(#a)"/>
     <g transform="matrix(.83376 0 0 .83376 6542.5 -541.64)">
      <path transform="matrix(1.1163 0 0 1.1163 -3830.8 2253)" d="m3095.6 6537.4a328.02 328.02 0 1 1 -0.026 -4.1257" fill="url(#b)"/>
      <path d="m-835.71 9781.6c-11.705-3.3073-28.255-13.061-39.96-16.368 20.551-63.006 46.377-121.02 53.142-184.02-25.375 10.677-35.071 12.212-62.187 14.566l7.6318-28.674c22.384-2.2996 26.606-6.0038 46.334-14.418 11.85-5.0361 23.228-11.074 32.46-19.178 0.85626-0.7564 1.6915-1.5316 2.5022-2.3257 7.5434 2.1314 17.994 8.1306 25.537 10.262-12.782 80.859-31.22 159.3-65.458 240.16z"/>
      <text transform="matrix(1.0199 0 -.15913 .98052 0 0)" x="801.34808" y="9997.7432" font-family="Arial" font-size="361.15" stroke="#000" stroke-width="18.952">
       <tspan x="801.34808" y="9997.7432" stroke-width="18.952">3</tspan>
      </text>
     </g>
    </g>
   </g>
   <path transform="matrix(2.0699 0 0 2.0699 -3592.6 -3116.2)" d="m5175.6 3944.7a1288.5 1288.5 0 1 1 -0.1019 -16.206" fill="#6e9aff" fill-opacity=".37647" fill-rule="evenodd" opacity=".7"/>
  </g>
 </g>
</svg>
